<svg width="16" height="22" viewBox="0 0 16 22" fill="none" xmlns="http://www.w3.org/2000/svg">
<path d="M15.0643 18.3952C15.0027 18.0845 14.6971 17.8856 14.3882 17.9561C13.887 18.0704 13.1028 18.2098 12.2589 18.2098C9.59811 18.2098 7.48095 16.579 6.56539 14.2044H11.8946C12.0223 14.2044 12.1463 14.1609 12.246 14.0811C12.3458 14.0012 12.4154 13.8898 12.4434 13.7652L12.7421 12.4358C12.8211 12.0842 12.5537 11.75 12.1933 11.75H5.90094C5.84422 11.0784 5.83466 10.424 5.90736 9.76977H12.7789C12.9072 9.76977 13.0316 9.72592 13.1316 9.64549C13.2315 9.56506 13.301 9.45287 13.3284 9.32755L13.6337 7.93278C13.7105 7.58197 13.4433 7.25 13.0842 7.25H6.60238C7.56955 5.14105 9.54097 3.73297 12.1158 3.73297C12.7948 3.73297 13.4547 3.83844 13.89 3.92727C14.1814 3.9867 14.4688 3.81017 14.5464 3.52306L15.1085 1.44331C15.1939 1.12733 14.9929 0.805063 14.6713 0.744078C14.1039 0.6365 13.1895 0.5 12.2016 0.5C7.64614 0.5 3.97016 3.32431 2.61289 7.25H1.0625C0.751859 7.25 0.5 7.50186 0.5 7.8125V9.20727C0.5 9.51791 0.751859 9.76977 1.0625 9.76977H2.07355C2.02625 10.4076 2.01819 11.1426 2.06506 11.75H1.0625C0.751859 11.75 0.5 12.0019 0.5 12.3125V13.6419C0.5 13.9525 0.751859 14.2044 1.0625 14.2044H2.47409C3.64714 18.4387 7.30925 21.5 12.2016 21.5C13.4345 21.5 14.478 21.287 15.0658 21.1349C15.3548 21.0602 15.5358 20.7736 15.4777 20.4807L15.0643 18.3952Z" fill="#70AF1A"/>
</svg>
