<svg width="25" height="25" viewBox="0 0 25 25" fill="none" xmlns="http://www.w3.org/2000/svg">
<path d="M17.7083 22.9167H5.20831C4.37951 22.9167 3.58466 22.5874 2.9986 22.0014C2.41255 21.4153 2.08331 20.6205 2.08331 19.7917V7.29166C2.08331 6.46285 2.41255 5.668 2.9986 5.08195C3.58466 4.4959 4.37951 4.16666 5.20831 4.16666H9.37498C9.65125 4.16666 9.9162 4.2764 10.1115 4.47175C10.3069 4.6671 10.4166 4.93206 10.4166 5.20832C10.4166 5.48459 10.3069 5.74954 10.1115 5.94489C9.9162 6.14024 9.65125 6.24999 9.37498 6.24999H5.20831C4.93205 6.24999 4.66709 6.35974 4.47174 6.55509C4.27639 6.75044 4.16665 7.01539 4.16665 7.29166V19.7917C4.16665 20.0679 4.27639 20.3329 4.47174 20.5282C4.66709 20.7236 4.93205 20.8333 5.20831 20.8333H17.7083C17.9846 20.8333 18.2495 20.7236 18.4449 20.5282C18.6402 20.3329 18.75 20.0679 18.75 19.7917V15.625C18.75 15.3487 18.8597 15.0838 19.0551 14.8884C19.2504 14.6931 19.5154 14.5833 19.7916 14.5833C20.0679 14.5833 20.3329 14.6931 20.5282 14.8884C20.7236 15.0838 20.8333 15.3487 20.8333 15.625V19.7917C20.8333 20.6205 20.5041 21.4153 19.918 22.0014C19.332 22.5874 18.5371 22.9167 17.7083 22.9167Z" fill="#70AF1A"/>
<path d="M15.2083 6.11459L10.0521 11.3229C9.98175 11.3857 9.93414 11.4699 9.91667 11.5625L8.87501 15.5417C8.84977 15.6294 8.84904 15.7224 8.87292 15.8106C8.89679 15.8987 8.94434 15.9786 9.01042 16.0417C9.06121 16.0824 9.11962 16.1126 9.18222 16.1305C9.24482 16.1484 9.31036 16.1536 9.37501 16.1458C9.41967 16.1551 9.46576 16.1551 9.51042 16.1458L13.4896 15.1042C13.5822 15.0867 13.6664 15.0391 13.7292 14.9688L18.8854 9.79168L15.2083 6.11459Z" fill="#70AF1A"/>
<path d="M21.875 4.6354L20.3646 3.12499C20.0685 2.83425 19.6702 2.67136 19.2552 2.67136C18.8403 2.67136 18.4419 2.83425 18.1459 3.12499L16.6667 4.6354L20.3646 8.33332L21.875 6.85415C22.1658 6.55809 22.3286 6.15972 22.3286 5.74478C22.3286 5.32983 22.1658 4.93147 21.875 4.6354Z" fill="#70AF1A"/>
</svg>
