<svg width="20" height="20" viewBox="0 0 20 20" fill="none" xmlns="http://www.w3.org/2000/svg">
<path d="M0 0V9.13043H9.13043V0H0ZM7.82609 7.82609H1.30434V1.30434H7.82609V7.82609Z" fill="#70AF1A"/>
<path d="M6.52169 2.6087H2.60864V6.52175H6.52169V2.6087Z" fill="#70AF1A"/>
<path d="M10.8696 0V9.13043H20.0001V0H10.8696ZM18.6957 7.82609H12.174V1.30434H18.6957V7.82609Z" fill="#70AF1A"/>
<path d="M17.3913 2.6087H13.4783V6.52175H17.3913V2.6087Z" fill="#70AF1A"/>
<path d="M0 10.8696V20H9.13043V10.8696H0ZM7.82609 18.6957H1.30434V12.1739H7.82609V18.6957Z" fill="#70AF1A"/>
<path d="M6.52169 13.4783H2.60864V17.3913H6.52169V13.4783Z" fill="#70AF1A"/>
<path d="M13.4783 12.1739V10.8696H10.8696V20H13.4783V18.6957H12.174V16.087H13.4783V14.7826H12.174V12.1739H13.4783Z" fill="#70AF1A"/>
<path d="M19.9999 10.8696H18.6956V12.1739H19.9999V10.8696Z" fill="#70AF1A"/>
<path d="M18.6957 13.913V18.6956H17.3914V20H20.0001V13.913H18.6957Z" fill="#70AF1A"/>
<path d="M17.3914 10.8696H14.7827V12.1739H17.3914V10.8696Z" fill="#70AF1A"/>
<path d="M17.3914 14.7826V13.4783H14.7827V17.3913H17.3914V16.087H16.087V14.7826H17.3914Z" fill="#70AF1A"/>
<path d="M16.0871 18.6957H14.7827V20H16.0871V18.6957Z" fill="#70AF1A"/>
</svg>
