<svg width="24" height="24" viewBox="0 0 24 24" fill="none" xmlns="http://www.w3.org/2000/svg">
<path fill-rule="evenodd" clip-rule="evenodd" d="M23.3099 12L19.9999 15.31V20H15.3099L11.9999 23.31L8.68994 20H3.99994V15.31L0.689941 12L3.99994 8.69V4H8.68994L11.9999 0.690002L15.3099 4H19.9999V8.69L23.3099 12ZM11.9428 19.3143C16.0139 19.3143 19.3142 16.014 19.3142 11.9429C19.3142 7.87172 16.0139 4.57142 11.9428 4.57142C7.87169 4.57142 4.57138 7.87172 4.57138 11.9429C4.57138 16.014 7.87169 19.3143 11.9428 19.3143Z" fill="#70AF1A"/>
<rect x="7.77148" y="9.48572" width="8.45714" height="1.37143" rx="0.685714" fill="#70AF1A"/>
<rect x="7.77148" y="13.1429" width="8.45714" height="1.37143" rx="0.685716" fill="#70AF1A"/>
</svg>
