<svg width="35" height="40" viewBox="0 0 28 22" fill="none" xmlns="http://www.w3.org/2000/svg">
<path fill-rule="evenodd" clip-rule="evenodd" d="M14.5833 17.3684C18.1272 17.3684 21 14.5171 21 10.9999C21 7.48277 18.1272 4.63153 14.5833 4.63153C11.0395 4.63153 8.16667 7.48277 8.16667 10.9999C8.16667 14.5171 11.0395 17.3684 14.5833 17.3684ZM14.5833 18.5263C18.7715 18.5263 22.1667 15.1566 22.1667 10.9999C22.1667 6.84328 18.7715 3.47363 14.5833 3.47363C10.3952 3.47363 7 6.84328 7 10.9999C7 15.1566 10.3952 18.5263 14.5833 18.5263Z" fill="black"/>
<path fill-rule="evenodd" clip-rule="evenodd" d="M5.83333 4.66694C5.83333 6.63891 4.55918 7.78617 3.5 7.78617C2.44082 7.78617 1.16667 6.63891 1.16667 4.66694C1.16667 2.69497 2.44082 1.54772 3.5 1.54772C4.55918 1.54772 5.83333 2.69497 5.83333 4.66694ZM4.95236 8.53808C6.16046 7.86758 7 6.38641 7 4.66694C7 2.3178 5.433 0.413452 3.5 0.413452C1.567 0.413452 0 2.3178 0 4.66694C0 6.38641 0.839541 7.86758 2.04764 8.53808C1.8597 8.80927 1.75 9.13596 1.75 9.48756V18.5617C1.75 19.5013 2.5335 20.2631 3.5 20.2631C4.4665 20.2631 5.25 19.5013 5.25 18.5617V9.48756C5.25 9.13596 5.1403 8.80927 4.95236 8.53808ZM3.5 8.92043C3.17783 8.92043 2.91667 9.17435 2.91667 9.48756V18.5617C2.91667 18.8749 3.17783 19.1288 3.5 19.1288C3.82217 19.1288 4.08333 18.8749 4.08333 18.5617V9.48756C4.08333 9.17435 3.82217 8.92043 3.5 8.92043Z" fill="black"/>
<path fill-rule="evenodd" clip-rule="evenodd" d="M26.8333 1.67209V11.189H26.25H25.1711C25.272 9.92122 25.4468 7.9528 25.655 6.5279C25.88 4.98893 26.3212 2.8709 26.5898 1.63351C26.5997 1.58786 26.6425 1.54772 26.7054 1.54772C26.776 1.54772 26.8333 1.6034 26.8333 1.67209ZM27.7167 11.962C27.8929 11.7705 28 11.5177 28 11.2405V1.67209C28 0.976963 27.4204 0.413452 26.7054 0.413452C26.0985 0.413452 25.5736 0.82194 25.4483 1.39925C25.1797 2.63652 24.731 4.78782 24.5 6.36834C24.2851 7.83831 24.1075 9.84877 24.0067 11.1166C23.9691 11.5904 24.2388 12.0112 24.6468 12.207C24.5524 12.4162 24.5 12.6473 24.5 12.8904V18.5617C24.5 19.5013 25.2835 20.2631 26.25 20.2631C27.2165 20.2631 28 19.5013 28 18.5617V12.8904C28 12.5478 27.8959 12.2289 27.7167 11.962ZM26.25 12.3232C25.9278 12.3232 25.6666 12.5771 25.6666 12.8904V18.5617C25.6666 18.8749 25.9278 19.1288 26.25 19.1288C26.5721 19.1288 26.8333 18.8749 26.8333 18.5617V12.8904C26.8333 12.5771 26.5721 12.3232 26.25 12.3232Z" fill="black"/>
<path fill-rule="evenodd" clip-rule="evenodd" d="M23.3333 17.5827C23.3333 17.0724 22.572 16.8545 22.2464 17.2474C20.4276 19.4423 17.6702 20.8421 14.5833 20.8421C11.8922 20.8421 9.45146 19.7782 7.66477 18.0511C7.31394 17.712 6.67728 17.9106 6.63407 18.3966C6.62018 18.5529 6.67464 18.708 6.78658 18.818C8.789 20.7852 11.5432 22 14.5833 22C18.0787 22 21.1961 20.3941 23.2275 17.8852C23.2967 17.7997 23.3333 17.6927 23.3333 17.5827ZM23.3333 4.41726C23.3333 4.3073 23.2967 4.20026 23.2275 4.11479C21.1961 1.60587 18.0787 0 14.5833 0C12.2439 0 10.0737 0.719371 8.28519 1.94739C8.15637 2.03584 8.07594 2.17837 8.0621 2.33401C8.01889 2.81998 8.61109 3.12728 9.01554 2.85443C10.6028 1.78365 12.5194 1.15789 14.5833 1.15789C17.6702 1.15789 20.4276 2.55769 22.2464 4.7526C22.572 5.14553 23.3333 4.92756 23.3333 4.41726Z" fill="black"/>
</svg>
