<svg width="24" height="24" viewBox="0 0 24 24" fill="none" xmlns="http://www.w3.org/2000/svg">
<path d="M19.0711 4.92891C17.1823 3.0402 14.6711 2 12 2C9.32891 2 6.8177 3.0402 4.92891 4.92891C3.0402 6.8177 2 9.32891 2 12C2 14.6711 3.0402 17.1823 4.92891 19.0711C6.8177 20.9598 9.32891 22 12 22C14.6711 22 17.1823 20.9598 19.0711 19.0711C20.9598 17.1823 22 14.6711 22 12C22 9.32891 20.9598 6.8177 19.0711 4.92891ZM5.75758 5.75758C7.425 4.09016 9.64191 3.17188 12 3.17188C14.1617 3.17188 16.2044 3.94406 17.8143 5.35715L14.96 8.21141H14.0553C14.3849 7.43551 14.2343 6.50238 13.6019 5.87004L12.5859 4.8582V4.39809C12.5859 4.07449 12.3236 3.81215 12 3.81215C11.6764 3.81215 11.4141 4.07449 11.4141 4.39809V4.8582L10.3973 5.8709C9.76559 6.50258 9.61508 7.43555 9.94473 8.21141H8.86363H8.16016C7.83656 8.21141 7.57422 8.47375 7.57422 8.79734C7.57422 9.12094 7.83656 9.38328 8.16016 9.38328H8.2777V11.2513C8.2777 11.606 8.36535 11.9404 8.51937 12.2348H8.16016C7.83656 12.2348 7.57422 12.4972 7.57422 12.8208C7.57422 13.1444 7.83656 13.4067 8.16016 13.4067H8.2777V14.8937L5.35715 17.8142C3.94406 16.2044 3.17188 14.1617 3.17188 12C3.17188 9.64191 4.09016 7.425 5.75758 5.75758ZM12 5.92855L12.7741 6.69949C13.1474 7.07281 13.1474 7.6802 12.7741 8.05352L12 8.82762L11.2259 8.05355C10.8526 7.68023 10.8526 7.07285 11.2251 6.70035L12 5.92855ZM14.5504 11.2513C14.5504 11.7793 14.1209 12.2087 13.593 12.2087H12.5859V10.3407C12.5859 9.81277 13.0154 9.38328 13.5434 9.38328H14.5504V11.2513ZM10.4566 9.38328C10.9846 9.38328 11.4141 9.81277 11.4141 10.3407V12.2087H10.407C9.87906 12.2087 9.44957 11.7793 9.44957 11.2513V9.38328H10.4566ZM9.44957 13.4067H10.4566C10.9846 13.4067 11.4141 13.8362 11.4141 14.3642V16.2322H10.407C9.87906 16.2322 9.44957 15.8027 9.44957 15.2748V13.4067ZM12.5859 14.3641C12.5859 13.8362 13.0154 13.4067 13.5434 13.4067H14.5504V15.2747C14.5504 15.8027 14.1209 16.2321 13.593 16.2321H12.5859V14.3641ZM18.2424 18.2424C16.575 19.9098 14.3581 20.8281 12 20.8281C9.83832 20.8281 7.79559 20.0559 6.18578 18.6429L8.5368 16.2918C8.89828 16.9539 9.60105 17.4041 10.407 17.4041H11.4141V18.8984C11.4141 19.222 11.6764 19.4844 12 19.4844C12.3236 19.4844 12.5859 19.222 12.5859 18.8984V17.4041H13.593C14.7671 17.4041 15.7223 16.4489 15.7223 15.2748V13.4067H15.8398C16.1634 13.4067 16.4258 13.1444 16.4258 12.8208C16.4258 12.4972 16.1634 12.2348 15.8398 12.2348H15.4806C15.6346 11.9404 15.7223 11.606 15.7223 11.2513V9.38328H15.8398C16.1634 9.38328 16.4258 9.12094 16.4258 8.79734C16.4258 8.68465 16.3934 8.57973 16.3382 8.49039L18.6429 6.18578C20.0559 7.79559 20.8281 9.83832 20.8281 12C20.8281 14.3581 19.9098 16.575 18.2424 18.2424Z" fill="#70AF1A"/>
</svg>
